<?xml version="1.0" encoding="UTF-8"?>
<!DOCTYPE svg PUBLIC "-//W3C//DTD SVG 1.1//EN" "http://www.w3.org/Graphics/SVG/1.1/DTD/svg11.dtd">
<svg xmlns="http://www.w3.org/2000/svg" xml:space="preserve" width="1000px" height="331px" version="1.1" shape-rendering="geometricPrecision" text-rendering="geometricPrecision" image-rendering="optimizeQuality" fill-rule="evenodd" clip-rule="evenodd"
viewBox="0 0 76929.8 25482"
 xmlns:xlink="http://www.w3.org/1999/xlink"
 xmlns:xodm="http://www.corel.com/coreldraw/odm/2003">
  <path fill="#ffffff" d="M28195.5 14258.6l-9652.8 0 -4.7 0 -240.9 0 1383.9 2661.4 6606.4 0 0 5900.2 -3404.5 0 -2646.6 0 0 2661.5 4030.5 0 2919.4 0 1762.8 -1762.8 0 -8706.8c0,-2.1 0,-4.1 0,-6.1 -3.4,-407.6 -334.6,-740.9 -741.5,-747.4 -4.1,0 -8.1,0 -12,0zm-1914.5 -3028l2297.7 0 363.8 0 0 -2661.5 -2661.5 0 0 2661.5zm12463.1 -2661.5l-574.6 0 -1383.9 2661.5 3334.2 0 8.3 0 -1384 -2661.5zm9998.6 5689.5l11431.8 0c2.1,0 4,0 6.1,0 409.6,3.3 744.1,337.7 747.4,747.4 0,2 0,4 0,6.1l0 2690 0 3099.8 -2661.5 0 0 -3881.9 -7615.7 0 0 4335.8 -2661.5 0 0 -6243.7c0,-2.1 0,-4.1 0,-6.1 3.3,-407.6 334.5,-740.9 741.5,-747.3 4,-0.1 8,-0.1 11.9,-0.1zm9523.7 8561.9l-1138.3 2661.5 -245.7 0 1384 -2661.5 -1383.8 2661.2 -8139.7 0c-4.1,0 -8.1,-0.1 -12.1,-0.2 -407,-6.3 -738.2,-339.5 -741.5,-747.2 0,-2 0,-4.1 0,-6l0 -1908.1 2661.5 0 370.1 0 6881.8 0 363.7 0.3zm12111.1 -14251.4l2167.9 0 8.2 0 -2093.2 -4025.4 -2093.2 4025.4 -1383.9 2661.5 -42.6 0 -2949.7 0 1384.1 -2661.5 3589.3 -6902.5 862.6 -1659.1 1266.7 0 862.8 1659.1 3589.3 6902.5 1384 2661.5 -3000.5 0 -4927.5 0 -8.3 0 1384 -2661.5zm-31837.8 14251.1l-2167.8 0 -8.3 0 2093.3 -4025.5 2093.2 4025.5 1383.9 2661.5 42.6 0 2949.6 0 -1384 -2661.5 -3589.3 -6902.5 -862.7 -1659.1 -1266.7 0 -862.7 1659.1 -3589.3 6902.5 -1384 2661.5 3000.4 0 4927.5 0 8.4 0 -1384.1 -2661.5zm-3551.8 -11589.6l1384 -2661.5 -8.3 0 2093.3 -4025.4 2093.2 4025.4 1383.9 2661.5 42.6 0 2949.6 0 -1384 -2661.5 -3589.3 -6902.5 -862.7 -1659.1 -1266.7 0 -862.7 1659.1 -3589.3 6902.5 -1384 2661.5 3000.4 0zm-18984.1 -7671.2l2661.5 2348.2 0 0 0 0 3811.8 3363.4 4 -3.5 1865.3 -1645.7 1934.6 -1714.2 0 7.5 0 1089.5 2661.5 0 0 -3437.7 0 -3559.4 -2661.5 2351 -3799.9 3356.7 -4 -3.5 -4 3.5 -1716.7 -1514.5 -2091.1 -1836.4 0 -7.4 0 -8.6 -2661.5 -2348.3 0 3559.4zm-3818.6 7671.2l-11431.7 0c-2.1,0 -4.1,0 -6.1,0 -409.7,-3.2 -744.2,-337.7 -747.4,-747.3 0,-2.1 0,-4.2 0,-6.1l0 -2690.1 0 -3099.8 2661.4 0 0 3881.8 7615.7 0 0 -4335.8 2661.6 0 0 6243.8c0,2 0,4.1 0,6.2 -3.3,407.6 -334.6,740.8 -741.6,747.3 -3.9,0 -7.9,0 -11.9,0zm-9523.8 -8561.6l1138.3 -2661.5 245.6 0 8139.8 0c4.1,0 8.1,0.1 12,0.1 407,6.4 738.3,339.7 741.6,747.3 0,2.1 0,4.1 0,6.1l0 1908 -2661.6 0 -486.2 0 -6765.6 0 -363.7 -0.3 -0.2 0.3zm55603 0.1l2297.6 0 363.9 0 0 -2661.6 -2661.5 0 0 2661.6zm0 4280.7l0 4280.8 2661.5 0 0 -4280.8 0 -2661.5 -363.9 0 -2297.6 0 -6602.1 0 1384.1 2661.5 5218 0zm-10273.1 0l0 4280.8 2661.6 0 0 -4280.8 0 -2297.6 0 -363.9 0 -1941.3 0 -2339.5 -2661.6 0 0 4280.8 0 2661.5zm-31987.5 4280.8l2661.5 0 0 -3286.8 -2661.5 -2356.8 0 5643.6zm2668 14251.1l0 -2408.3 0 -4134.7 -2661.6 0 0 6543 2661.6 0z"/>
</svg>
