<?xml version="1.0" encoding="UTF-8"?>
<!DOCTYPE svg PUBLIC "-//W3C//DTD SVG 1.1//EN" "http://www.w3.org/Graphics/SVG/1.1/DTD/svg11.dtd">
<!-- Creator: CorelDRAW -->
<svg xmlns="http://www.w3.org/2000/svg" xml:space="preserve" width="1000px" height="331px" version="1.1" style="shape-rendering:geometricPrecision; text-rendering:geometricPrecision; image-rendering:optimizeQuality; fill-rule:evenodd; clip-rule:evenodd"
viewBox="0 0 475.474 157.382"
 xmlns:xlink="http://www.w3.org/1999/xlink"
 xmlns:xodm="http://www.corel.com/coreldraw/odm/2003">
 <defs>
  <style type="text/css">
   <![CDATA[
    .fil0 {fill:white}
   ]]>
  </style>
 </defs>
 <g id="Layer_x0020_1">
  <metadata id="CorelCorpID_0Corel-Layer"/>
  <path class="fil0" d="M301.262 157.382l70.656 0c2.56,0 4.657,-2.092 4.657,-4.654l0 -38.563 -16.45 0 0 26.78 -47.071 0 0 -23.976 -16.449 0 0 35.761c0,2.56 2.095,4.652 4.657,4.652l0 0zm-188.174 -69.316l8.554 16.437 40.831 0 0 36.442 -37.399 0 0 16.437 42.954 0 10.895 -10.887c0,-17.938 0,-35.875 0,-53.813 -0.021,-2.519 -2.068,-4.576 -4.582,-4.616 -20.417,0 -40.836,0 -61.253,0l0 0zm49.346 -18.702l16.449 0 0 -16.439 -16.449 0 0 16.439zm73.478 -16.439l-8.554 16.439 20.608 0 -8.502 -16.439 -3.552 0 0 0zm212.516 0l-12.939 -24.862 -21.753 41.301 -18.232 0 36.07 -69.318 7.83 0 36.07 69.318 -49.051 0 8.554 -16.439 13.451 0zm-210.227 88.02l-13.399 0 12.887 -24.863 21.49 41.3 18.494 0 -36.07 -69.316 -7.829 0 -36.07 69.316 49.05 0 -8.553 -16.437zm-21.954 -71.581c7.179,-13.794 14.25,-27.48 21.442,-41.301l21.753 41.301 18.231 0 -36.07 -69.318 -7.829 0 -36.07 69.318 18.543 0 0 0zm-117.332 -47.38c13.335,11.759 26.673,23.517 40.008,35.277l23.511 -20.774 0 6.776 16.449 0 0 -43.217 -39.985 35.253c-13.36,-11.778 -26.637,-23.532 -39.983,-35.299l0 21.984zm-23.602 47.38l-70.655 0c-2.547,0 -4.637,-2.07 -4.658,-4.617 0,-5.55 0,-11.101 0,-16.651l0 -19.146 16.45 0 0 23.975 47.069 0 0 -26.78 16.45 0 0 38.565c0,2.483 -4.656,4.654 -4.656,4.654l0 0zm-51.827 -69.318l51.827 0c2.545,0 4.636,2.071 4.657,4.616 0,3.941 0,7.881 0,11.823 -20.423,0 -40.848,0 -61.271,0l-2.249 -0.003 7.036 -16.436zm336.625 16.439l16.45 0 0 -16.439 -16.45 0 0 16.439zm0 26.439l0 26.44 16.45 0 0 -42.878c-19.085,0 -38.171,0 -57.255,0l8.554 16.438 32.251 0zm-63.494 26.44l16.45 0c0,-23.106 0,-46.211 0,-69.318l-16.45 0c0,23.107 0,46.212 0,69.318zm-197.702 0l16.448 0 0 -20.3 -16.448 -14.558 0 34.857 0 0.001zm16.489 88.018l0 -40.411 -16.45 0 0 40.411 16.45 0zm197.651 -52.881l63.519 0.002 0 -11.784c0,-2.562 -2.097,-4.653 -4.658,-4.653 -17.276,0 -34.55,0 -51.826,0l-7.035 16.435 0 0z"/>
 </g>
</svg>
