<svg xmlns="http://www.w3.org/2000/svg">
    <defs>

        <g id="logo">
            <g id="Layer_x0020_1">
                <path fill="white" d="M301.262 157.382l70.656 0c2.56,0 4.657,-2.092 4.657,-4.654l0 -38.563 -16.45 0 0 26.78 -47.071 0 0 -23.976 -16.449 0 0 35.761c0,2.56 2.095,4.652 4.657,4.652l0 0zm-188.174 -69.316l8.554 16.437 40.831 0 0 36.442 -37.399 0 0 16.437 42.954 0 10.895 -10.887c0,-17.938 0,-35.875 0,-53.813 -0.021,-2.519 -2.068,-4.576 -4.582,-4.616 -20.417,0 -40.836,0 -61.253,0l0 0zm49.346 -18.702l16.449 0 0 -16.439 -16.449 0 0 16.439zm73.478 -16.439l-8.554 16.439 20.608 0 -8.502 -16.439 -3.552 0 0 0zm212.516 0l-12.939 -24.862 -21.753 41.301 -18.232 0 36.07 -69.318 7.83 0 36.07 69.318 -49.051 0 8.554 -16.439 13.451 0zm-210.227 88.02l-13.399 0 12.887 -24.863 21.49 41.3 18.494 0 -36.07 -69.316 -7.829 0 -36.07 69.316 49.05 0 -8.553 -16.437zm-21.954 -71.581c7.179,-13.794 14.25,-27.48 21.442,-41.301l21.753 41.301 18.231 0 -36.07 -69.318 -7.829 0 -36.07 69.318 18.543 0 0 0zm-117.332 -47.38c13.335,11.759 26.673,23.517 40.008,35.277l23.511 -20.774 0 6.776 16.449 0 0 -43.217 -39.985 35.253c-13.36,-11.778 -26.637,-23.532 -39.983,-35.299l0 21.984zm-23.602 47.38l-70.655 0c-2.547,0 -4.637,-2.07 -4.658,-4.617 0,-5.55 0,-11.101 0,-16.651l0 -19.146 16.45 0 0 23.975 47.069 0 0 -26.78 16.45 0 0 38.565c0,2.483 -4.656,4.654 -4.656,4.654l0 0zm-51.827 -69.318l51.827 0c2.545,0 4.636,2.071 4.657,4.616 0,3.941 0,7.881 0,11.823 -20.423,0 -40.848,0 -61.271,0l-2.249 -0.003 7.036 -16.436zm336.625 16.439l16.45 0 0 -16.439 -16.45 0 0 16.439zm0 26.439l0 26.44 16.45 0 0 -42.878c-19.085,0 -38.171,0 -57.255,0l8.554 16.438 32.251 0zm-63.494 26.44l16.45 0c0,-23.106 0,-46.211 0,-69.318l-16.45 0c0,23.107 0,46.212 0,69.318zm-197.702 0l16.448 0 0 -20.3 -16.448 -14.558 0 34.857 0 0.001zm16.489 88.018l0 -40.411 -16.45 0 0 40.411 16.45 0zm197.651 -52.881l63.519 0.002 0 -11.784c0,-2.562 -2.097,-4.653 -4.658,-4.653 -17.276,0 -34.55,0 -51.826,0l-7.035 16.435 0 0z"/>
            </g>
        </g>

        <g id="discord">
            <path d="M216.856339,16.5966031 C200.285002,8.84328665 182.566144,3.2084988 164.041564,0 C161.766523,4.11318106 159.108624,9.64549908 157.276099,14.0464379 C137.583995,11.0849896 118.072967,11.0849896 98.7430163,14.0464379 C96.9108417,9.64549908 94.1925838,4.11318106 91.8971895,0 C73.3526068,3.2084988 55.6133949,8.86399117 39.0420583,16.6376612 C5.61752293,67.146514 -3.4433191,116.400813 1.08711069,164.955721 C23.2560196,181.510915 44.7403634,191.567697 65.8621325,198.148576 C71.0772151,190.971126 75.7283628,183.341335 79.7352139,175.300261 C72.104019,172.400575 64.7949724,168.822202 57.8887866,164.667963 C59.7209612,163.310589 61.5131304,161.891452 63.2445898,160.431257 C105.36741,180.133187 151.134928,180.133187 192.754523,160.431257 C194.506336,161.891452 196.298154,163.310589 198.110326,164.667963 C191.183787,168.842556 183.854737,172.420929 176.223542,175.320965 C180.230393,183.341335 184.861538,190.991831 190.096624,198.16893 C211.238746,191.588051 232.743023,181.531619 254.911949,164.955721 C260.227747,108.668201 245.831087,59.8662432 216.856339,16.5966031 Z M85.4738752,135.09489 C72.8290281,135.09489 62.4592217,123.290155 62.4592217,108.914901 C62.4592217,94.5396472 72.607595,82.7145587 85.4738752,82.7145587 C98.3405064,82.7145587 108.709962,94.5189427 108.488529,108.914901 C108.508531,123.290155 98.3405064,135.09489 85.4738752,135.09489 Z M170.525237,135.09489 C157.88039,135.09489 147.510584,123.290155 147.510584,108.914901 C147.510584,94.5396472 157.658606,82.7145587 170.525237,82.7145587 C183.391518,82.7145587 193.761324,94.5189427 193.539891,108.914901 C193.539891,123.290155 183.391518,135.09489 170.525237,135.09489 Z" fill="#fff" fill-rule="nonzero"></path>
        </g>

        <g id="medium">
            <path d="M72.2009141,1.42108547e-14 C112.076502,1.42108547e-14 144.399375,32.5485469 144.399375,72.6964154 C144.399375,112.844284 112.074049,145.390378 72.2009141,145.390378 C32.327779,145.390378 0,112.844284 0,72.6964154 C0,32.5485469 32.325326,1.42108547e-14 72.2009141,1.42108547e-14 Z M187.500628,4.25836743 C207.438422,4.25836743 223.601085,34.8960455 223.601085,72.6964154 L223.603538,72.6964154 C223.603538,110.486973 207.440875,141.134463 187.503081,141.134463 C167.565287,141.134463 151.402624,110.486973 151.402624,72.6964154 C151.402624,34.9058574 167.562834,4.25836743 187.500628,4.25836743 Z M243.303393,11.3867175 C250.314,11.3867175 256,38.835526 256,72.6964154 C256,106.547493 250.316453,134.006113 243.303393,134.006113 C236.290333,134.006113 230.609239,106.554852 230.609239,72.6964154 C230.609239,38.837979 236.292786,11.3867175 243.303393,11.3867175 Z" fill="#fff"></path>
        </g>

        <g id="page">
            <path fill="#fff" d="M4 21.4V2.6C4 2.26863 4.26863 2 4.6 2H16.2515C16.4106 2 16.5632 2.06321 16.6757 2.17574L19.8243 5.32426C19.9368 5.43679 20 5.5894 20 5.74853V21.4C20 21.7314 19.7314 22 19.4 22H4.6C4.26863 22 4 21.7314 4 21.4Z" />
            <path fill="#fff" d="M16 5.4V2.35355C16 2.15829 16.1583 2 16.3536 2C16.4473 2 16.5372 2.03725 16.6036 2.10355L19.8964 5.39645C19.9628 5.46275 20 5.55268 20 5.64645C20 5.84171 19.8417 6 19.6464 6H16.6C16.2686 6 16 5.73137 16 5.4Z" stroke="currentColor" stroke-width="1.5" stroke-linecap="round" stroke-linejoin="round"/>
            <path fill="#fff" d="M8 10L16 10" stroke="currentColor" stroke-width="1.5" stroke-linecap="round" stroke-linejoin="round"/>
            <path fill="#fff" d="M8 18L16 18" stroke="currentColor" stroke-width="1.5" stroke-linecap="round" stroke-linejoin="round"/>
            <path fill="#fff" d="M8 14L12 14" stroke="currentColor" stroke-width="1.5" stroke-linecap="round" stroke-linejoin="round"/>
        </g>

        <g id="twitter">
            <path id="XMLID_827_" d="M302.973,57.388c-4.87,2.16-9.877,3.983-14.993,5.463c6.057-6.85,10.675-14.91,13.494-23.73
		c0.632-1.977-0.023-4.141-1.648-5.434c-1.623-1.294-3.878-1.449-5.665-0.39c-10.865,6.444-22.587,11.075-34.878,13.783
		c-12.381-12.098-29.197-18.983-46.581-18.983c-36.695,0-66.549,29.853-66.549,66.547c0,2.89,0.183,5.764,0.545,8.598
		C101.163,99.244,58.83,76.863,29.76,41.204c-1.036-1.271-2.632-1.956-4.266-1.825c-1.635,0.128-3.104,1.05-3.93,2.467
		c-5.896,10.117-9.013,21.688-9.013,33.461c0,16.035,5.725,31.249,15.838,43.137c-3.075-1.065-6.059-2.396-8.907-3.977
		c-1.529-0.851-3.395-0.838-4.914,0.033c-1.52,0.871-2.473,2.473-2.513,4.224c-0.007,0.295-0.007,0.59-0.007,0.889
		c0,23.935,12.882,45.484,32.577,57.229c-1.692-0.169-3.383-0.414-5.063-0.735c-1.732-0.331-3.513,0.276-4.681,1.597
		c-1.17,1.32-1.557,3.16-1.018,4.84c7.29,22.76,26.059,39.501,48.749,44.605c-18.819,11.787-40.34,17.961-62.932,17.961
		c-4.714,0-9.455-0.277-14.095-0.826c-2.305-0.274-4.509,1.087-5.294,3.279c-0.785,2.193,0.047,4.638,2.008,5.895
		c29.023,18.609,62.582,28.445,97.047,28.445c67.754,0,110.139-31.95,133.764-58.753c29.46-33.421,46.356-77.658,46.356-121.367
		c0-1.826-0.028-3.67-0.084-5.508c11.623-8.757,21.63-19.355,29.773-31.536c1.237-1.85,1.103-4.295-0.33-5.998
		C307.394,57.037,305.009,56.486,302.973,57.388z" fill="#fff" />
        </g>

    </defs>
</svg>
